<svg role="img" style="width:inherit;height:inherit;line-height:inherit;color:inherit;" viewBox="0 0 156 156" xmlns="http://www.w3.org/2000/svg"><defs><linearGradient x1=".026%" y1="50.008%" x2="100%" y2="50.008%" id="logos805a-2"><stop stop-color="#FCB913" offset="0%"></stop><stop stop-color="#FBAC15" offset="7%"></stop><stop stop-color="#F57A1B" offset="38%"></stop><stop stop-color="#F15620" offset="64%"></stop><stop stop-color="#EF4023" offset="86%"></stop><stop stop-color="#EE3824" offset="100%"></stop></linearGradient><linearGradient x1=".027%" y1="49.985%" x2="100%" y2="49.985%" id="logos805b-2"><stop stop-color="#E84698" offset="0%"></stop><stop stop-color="#E64392" offset="18%"></stop><stop stop-color="#E23C82" offset="42%"></stop><stop stop-color="#DB3166" offset="69%"></stop><stop stop-color="#D12040" offset="98%"></stop><stop stop-color="#D01F3D" offset="100%"></stop></linearGradient><linearGradient x1="-.015%" y1="50.04%" x2="99.966%" y2="50.04%" id="logos805c-2"><stop stop-color="#48C3D6" offset="0%"></stop><stop stop-color="#42BBD3" offset="18%"></stop><stop stop-color="#32A6CA" offset="44%"></stop><stop stop-color="#1784BB" offset="76%"></stop><stop stop-color="#0067AE" offset="100%"></stop></linearGradient><linearGradient x1=".001%" y1="50.048%" x2="100%" y2="50.048%" id="logos805d-2"><stop stop-color="#E84698" offset="0%"></stop><stop stop-color="#E64392" offset="18%"></stop><stop stop-color="#E23C82" offset="42%"></stop><stop stop-color="#DB3166" offset="69%"></stop><stop stop-color="#D12040" offset="98%"></stop><stop stop-color="#D01F3D" offset="100%"></stop></linearGradient><linearGradient x1=".03%" y1="49.99%" x2="100.045%" y2="49.99%" id="logos805e-2"><stop stop-color="#FCB913" offset="0%"></stop><stop stop-color="#FBAC15" offset="7%"></stop><stop stop-color="#F57A1B" offset="38%"></stop><stop stop-color="#F15620" offset="64%"></stop><stop stop-color="#EF4023" offset="86%"></stop><stop stop-color="#EE3824" offset="100%"></stop></linearGradient><linearGradient x1=".008%" y1="49.989%" x2="99.979%" y2="49.989%" id="logos805f-2"><stop stop-color="#E84698" offset="0%"></stop><stop stop-color="#E64392" offset="18%"></stop><stop stop-color="#E23C82" offset="42%"></stop><stop stop-color="#DB3166" offset="69%"></stop><stop stop-color="#D12040" offset="98%"></stop><stop stop-color="#D01F3D" offset="100%"></stop></linearGradient><linearGradient x1="-.011%" y1="50.024%" x2="99.999%" y2="50.024%" id="logos805g-2"><stop stop-color="#48C3D6" offset="0%"></stop><stop stop-color="#42BBD3" offset="18%"></stop><stop stop-color="#32A6CA" offset="44%"></stop><stop stop-color="#1784BB" offset="76%"></stop><stop stop-color="#0067AE" offset="100%"></stop></linearGradient><linearGradient x1=".001%" y1="49.995%" x2="100.01%" y2="49.995%" id="logos805h-2"><stop stop-color="#FCB913" offset="0%"></stop><stop stop-color="#FBAC15" offset="7%"></stop><stop stop-color="#F57A1B" offset="38%"></stop><stop stop-color="#F15620" offset="64%"></stop><stop stop-color="#EF4023" offset="86%"></stop><stop stop-color="#EE3824" offset="100%"></stop></linearGradient><linearGradient x1="-.015%" y1="50.005%" x2="99.99%" y2="50.005%" id="logos805i-2"><stop stop-color="#48C3D6" offset="0%"></stop><stop stop-color="#42BBD3" offset="18%"></stop><stop stop-color="#32A6CA" offset="44%"></stop><stop stop-color="#1784BB" offset="76%"></stop><stop stop-color="#0067AE" offset="100%"></stop></linearGradient><linearGradient x1="-.005%" y1="49.951%" x2="100.001%" y2="49.951%" id="logos805j-2"><stop stop-color="#E84698" offset="0%"></stop><stop stop-color="#E64392" offset="18%"></stop><stop stop-color="#E23C82" offset="42%"></stop><stop stop-color="#DB3166" offset="69%"></stop><stop stop-color="#D12040" offset="98%"></stop><stop stop-color="#D01F3D" offset="100%"></stop></linearGradient><linearGradient x1="-.02%" y1="49.977%" x2="100.002%" y2="49.977%" id="logos805k-2"><stop stop-color="#48C3D6" offset="0%"></stop><stop stop-color="#42BBD3" offset="18%"></stop><stop stop-color="#32A6CA" offset="44%"></stop><stop stop-color="#1784BB" offset="76%"></stop><stop stop-color="#0067AE" offset="100%"></stop></linearGradient><linearGradient x1="-.003%" y1="50%" x2="100.01%" y2="50%" id="logos805l-2"><stop stop-color="#FCB913" offset="0%"></stop><stop stop-color="#FBAC15" offset="7%"></stop><stop stop-color="#F57A1B" offset="38%"></stop><stop stop-color="#F15620" offset="64%"></stop><stop stop-color="#EF4023" offset="86%"></stop><stop stop-color="#EE3824" offset="100%"></stop></linearGradient></defs><g fill="none"><path d="M66.723.81a1.13 1.13 0 00-.947 1.116 1.006 1.006 0 000 .144l7.373 47.78v.09a.777.777 0 00.776.618l.152-.02a30.07 30.07 0 013.907-.272 29.42 29.42 0 013.928.276h.143a.776.776 0 00.772-.723l7.374-47.703c0-.035.023-.183.023-.218 0-.522-.358-.976-.865-1.097-.032 0-.16-.023-.195-.03A78.832 78.832 0 0078 0a77.604 77.604 0 00-11.254.81h-.023z" fill="url(#logos805a-2)"></path><path d="M66.723 154.794a1.123 1.123 0 01-.947-1.113.932.932 0 010-.144l7.373-47.78v-.09a.777.777 0 01.776-.618h.152c2.598.369 5.236.369 7.835 0h.143a.777.777 0 01.772.724l7.374 47.694c0 .04.023.183.023.222 0 .523-.358.977-.865 1.097l-.195.031a78.582 78.582 0 01-22.433 0l-.008-.023z" fill="url(#logos805b-2)"></path><path d="M154.8 66.5a1.118 1.118 0 00-1.105-.949h-.148l-47.665 7.392a.465.465 0 00-.085 0 .778.778 0 00-.617.754v.152a28.247 28.247 0 010 7.858v.144c0 .353.238.661.578.751l.143.024 47.577 7.391c.038 0 .186.023.225.023.52.001.973-.359 1.09-.867.015-.063.025-.127.031-.19a78.937 78.937 0 000-22.49l-.023.007z" fill="url(#logos805c-2)"></path><path d="M1.2 66.5a1.126 1.126 0 011.109-.949h.147l47.666 7.392a.422.422 0 01.085 0 .778.778 0 01.617.754.99.99 0 010 .152 29.892 29.892 0 00-.271 3.918c.003 1.317.095 2.632.275 3.937v.143c0 .352-.236.66-.574.751l-.144.024-47.58 7.391c-.035 0-.182.024-.217.024a1.122 1.122 0 01-1.09-.868 1.56 1.56 0 01-.032-.19 79.074 79.074 0 010-22.49l.008.011z" fill="url(#logos805d-2)"></path><path d="M106.639 5.478a1.124 1.124 0 00-1.44.622L87.736 51.177a.779.779 0 00.454 1.066 28.37 28.37 0 016.784 3.929c.037.03.076.06.116.085a.775.775 0 00.94-.128s.07-.074.092-.109l30.168-37.619c.02-.031.105-.148.124-.183.259-.45.175-1.02-.201-1.377a1.382 1.382 0 00-.152-.124 79.014 79.014 0 00-9.255-6.299 77.638 77.638 0 00-10.144-4.937l-.023-.003z" fill="url(#logos805e-2)"></path><path d="M29.834 138.828a1.122 1.122 0 01-.268-1.435c.024-.04.055-.078.082-.117l30.226-37.685a.775.775 0 011.145-.132 30.447 30.447 0 003.248 2.198 28.911 28.911 0 003.539 1.727l.132.058a.779.779 0 01.36.88s-.03.097-.046.14l-17.416 44.983a.92.92 0 01-.09.202c-.26.45-.794.662-1.292.514a1.895 1.895 0 01-.178-.074 78.232 78.232 0 01-19.426-11.25l-.016-.009z" fill="url(#logos805f-2)"></path><path d="M150.148 106.512a1.126 1.126 0 00-.489-1.377.752.752 0 00-.132-.059l-44.96-17.506-.082-.035a.775.775 0 00-.974.49 30.766 30.766 0 01-1.72 3.529 29.594 29.594 0 01-2.203 3.271.78.78 0 00.151 1.152l37.525 30.24a1.116 1.116 0 001.552-.07l.121-.153a79.021 79.021 0 0011.211-19.478v-.004z" fill="url(#logos805g-2)"></path><path d="M17.129 29.52a1.115 1.115 0 011.432-.265.636.636 0 01.12.085L56.27 59.63l.07.058a.78.78 0 01.155.97l-.09.124a27.957 27.957 0 00-3.915 6.8l-.058.132a.775.775 0 01-.877.362l-.136-.05-44.88-17.452a.93.93 0 01-.201-.094 1.122 1.122 0 01-.512-1.291c.019-.063.042-.124.07-.183a78.686 78.686 0 0111.222-19.452l.012-.035z" fill="url(#logos805h-2)"></path><path d="M138.84 29.473a1.116 1.116 0 00-1.432-.265l-.12.086L99.72 59.61c-.024 0-.047.039-.07.054a.78.78 0 00-.151.969c.026.044.054.087.085.128a29.64 29.64 0 012.192 3.252 29.301 29.301 0 011.727 3.545c.017.045.037.089.058.132a.775.775 0 00.878.362l.14-.055 44.87-17.506c.068-.028.134-.059.198-.093a1.122 1.122 0 00.439-1.475 78.76 78.76 0 00-11.254-19.451h.008z" fill="url(#logos805i-2)"></path><path d="M5.875 106.566c-.198-.516.008-1.1.485-1.377l.136-.066 44.95-17.506a.322.322 0 01.084-.031.775.775 0 01.974.486 30.22 30.22 0 001.72 3.528 29.691 29.691 0 002.29 3.385.78.78 0 01-.125.941s-.078.07-.113.094l-37.498 30.27-.178.124a1.12 1.12 0 01-1.378-.202c-.023-.02-.1-.124-.124-.148a78.77 78.77 0 01-6.29-9.305 77.923 77.923 0 01-4.933-10.165v-.028z" fill="url(#logos805j-2)"></path><path d="M126.213 138.793a1.126 1.126 0 00.182-1.56L96.15 99.572a.775.775 0 00-1.14-.132 29.566 29.566 0 01-3.25 2.197 28.733 28.733 0 01-3.535 1.74l-.132.058a.779.779 0 00-.306 1.015l17.463 44.983c0 .035.073.167.089.203.26.453.797.666 1.296.513l.178-.07a78.617 78.617 0 0019.403-11.282l-.003-.004z" fill="url(#logos805k-2)"></path><path d="M49.315 5.497a1.12 1.12 0 011.37.49l.065.132L68.233 51.18c.01.028.02.057.027.086a.779.779 0 01-.485.98 28.459 28.459 0 00-6.78 3.933c-.037.032-.076.06-.116.086a.775.775 0 01-.94-.124 1.412 1.412 0 01-.089-.113L29.66 18.436a7.444 7.444 0 01-.133-.183c-.26-.45-.176-1.02.202-1.377a1.58 1.58 0 01.152-.124 78.835 78.835 0 019.282-6.307 77.891 77.891 0 0110.12-4.944l.032-.004z" fill="url(#logos805l-2)"></path></g></svg>